<svg xmlns="http://www.w3.org/2000/svg" width="66" viewBox="0 0 281.71 81.76"><defs><style>.cls-1{fill:#4a4a4a}</style></defs><title>Лого</title><path class="cls-1" d="M281.71 62.69c-.83 3.49-.67 2.81-4 2.83h-24.67c-2.78 0-3.68-.89-3.68-3.65V20.23c0-2.83.83-3.68 3.62-3.68h26.16c1.62 0 2 .19 2.09 1.77a29.4 29.4 0 0 1 0 4.41c-.07 1.06-.66 1.57-1.83 1.56h-20v12h17.26c1.46 0 1.88.28 2 1.76a22.38 22.38 0 0 1 0 4c-.13 1.48-.55 1.77-2 1.77h-17.3v13.94h19.56c2.13 0 2.26.12 2.61 2.21a3.28 3.28 0 0 0 .2.56zM81.74 41.57a138.52 138.52 0 0 1-2.65 26.67 14.9 14.9 0 0 1-12.1 11.23 143.4 143.4 0 0 1-33.29 2.1 187.82 187.82 0 0 1-19.37-2.24c-6.63-1.1-11-6.13-12.15-13A153.63 153.63 0 0 1 .02 37.77a142.5 142.5 0 0 1 2.45-23.8 15.08 15.08 0 0 1 12.37-11.7A142.89 142.89 0 0 1 47.65.19a195.89 195.89 0 0 1 19.5 2.2c6.78 1.07 11.2 6 12.4 13.17a161.32 161.32 0 0 1 2.19 26.01zm-73.12-1a142 142 0 0 0 1.85 24.1c.72 4 2.3 5.89 6.28 6.46 5.13.73 10.29 1.38 15.46 1.69a140.6 140.6 0 0 0 32-1.48c4.5-.76 6.26-2.28 7-6.51a103.53 103.53 0 0 0 1.47-12c.3-6.47.49-13 .22-19.42a164.73 164.73 0 0 0-1.83-17c-.51-3.63-2.34-5.35-6-5.83-5.41-.71-10.81-1.41-16.22-1.72a133.4 133.4 0 0 0-32 1.67c-4 .75-5.66 2.48-6.39 6.52a140.32 140.32 0 0 0-1.84 23.52zm215.78 3.75h-7.93c-1.89 0-2.35-.38-2.41-2.28a26.5 26.5 0 0 1 .2-3.81 1.32 1.32 0 0 1 1.42-1.21h15.58a2.49 2.49 0 0 1 2.68 2.72c.06 2 0 4.08 0 6.12v13.33c0 2.61-.41 3.24-2.83 4-6.92 2.33-14 3.11-21.13 1.38a20.59 20.59 0 0 1-16.12-17.6 31.54 31.54 0 0 1 .9-14.82c3-9.2 9.55-14.2 19-15.56a30.87 30.87 0 0 1 15.26 1.42c4.84 1.78 5.35 2.53 5 8.07a1.32 1.32 0 0 1-.06.48c-.26 1.84-.85 2.15-2.46 1.23a25.37 25.37 0 0 0-13-3.65c-7.75.07-13.44 4.76-14.79 12.39a22 22 0 0 0 1.09 12.49 14.2 14.2 0 0 0 18.67 7.46c.39-.17.88-.67.89-1 .11-3.67.04-7.3.04-11.16zm-45.31 21.31c-1.24-.07-2.47-.11-3.71-.2a1.9 1.9 0 0 1-1.78-1.51c-.94-2.93-2-5.82-2.9-8.75a1.11 1.11 0 0 0-1.28-.91h-16.43a1.09 1.09 0 0 0-1.24.92c-.88 2.82-1.86 5.61-2.71 8.43a2.25 2.25 0 0 1-2.22 1.82c-2 .07-3.92.12-5.87 0-1.44-.08-1.88-.79-1.48-2.23.46-1.65 1-3.27 1.61-4.89q6.83-19.68 13.68-39.36c.66-1.91 1.14-2.32 3.11-2.35h7.67a3 3 0 0 1 3.07 2.29q7.34 21.28 14.79 42.52a16.77 16.77 0 0 1 .55 1.83c.34 1.51-.06 2.1-1.63 2.22-1.07.09-2.16 0-3.24 0zm-24.8-19h13.79l-6.79-20.4c-2.42 6.51-4.58 13-6.73 19.43-.09.29-.14.55-.26 1zm-46.55 1.88v15.16a1.48 1.48 0 0 1-1.22 1.7h-.05a17.51 17.51 0 0 1-7.37 0 1.42 1.42 0 0 1-1.25-1.57V19.88a3 3 0 0 1 3.3-3.31c5.6 0 11.2-.13 16.79.14a24 24 0 0 1 7.53 1.69c5.09 2 7.74 6.07 8.06 11.47a23 23 0 0 1-.58 6.76c-1.69 6.84-6.59 10.2-13.21 11.37a45.78 45.78 0 0 1-6.08.48c-1.91.09-3.83.03-5.92.03zm.06-7.64h6.83c5.22 0 8.08-2.64 8.61-7.82.42-4.09-1.41-7.45-4.81-8.38s-7-.38-10.64-.5z"/><path class="cls-1" d="M34.2 41.06c-2.33-2.33-4.41-4.38-6.45-6.45-2.28-2.34-4.64-4.65-6.85-7-2-2.21-2-4.79 0-6.74a4.81 4.81 0 0 1 6.8-.29l.2.2c4.09 3.94 8.06 8 12.06 12a9 9 0 0 1 .87 1.24c.58-.55.9-.84 1.2-1.15l11.53-11.59c1.39-1.39 3-2.33 5-1.91a4.86 4.86 0 0 1 2.73 8.2c-2.23 2.45-4.63 4.75-7 7.1-2.06 2.06-4.14 4.1-6.26 6.19l1 1.06 12.12 12.14a5.09 5.09 0 0 1 .32 6.93 4.81 4.81 0 0 1-6.78.59l-.28-.26c-.49-.41-.94-.87-1.39-1.32q-5.55-5.55-11-11.11a9 9 0 0 1-.69-.86c-2.18 2.11-4.23 4.07-6.25 6-2.48 2.44-4.87 5-7.41 7.33a4.75 4.75 0 0 1-6.72-.11l-.15-.17a5 5 0 0 1 .16-7q6-6.09 12.09-12.16a11.07 11.07 0 0 1 1.15-.86z"/></svg>