<svg width="533" height="196" viewBox="0 0 533 196" fill="none" xmlns="http://www.w3.org/2000/svg"><path d="M11.389 147.653L281.07 44.503l4.583 49.79-259.266 62.143-14.998-8.783z" fill="#A2A2A2"/><path d="M6.864 93.13l274.419-55.796 6.355 56.317-275.925 56.102L6.864 93.13z" fill="#fff"/><path d="M52.22 99.343l.083 25.699-4.692.954-12.35-13.58.037 16.083-5.644 1.148-.082-25.699 4.727-.961 12.357 13.615-.08-16.112 5.644-1.147zm22.418 15.647l-11.5 2.338-2.135 5.945-6.103 1.241L65.86 96.57l5.644-1.148 11.089 23.461-5.715 1.162-2.24-5.055zm-1.835-4.146l-4.018-9.102-3.884 10.709 7.902-1.607zm33.547-14.535c.469 2.305.247 4.407-.665 6.307-.911 1.9-2.403 3.415-4.476 4.547l5.854 6.745-6.033 1.226-5.286-6.125-4.869.99.03 7.194-5.75 1.169-.082-25.699 10.054-2.044c3.058-.622 5.569-.434 7.535.562 1.966.996 3.195 2.705 3.688 5.128zm-10.65 7.97c1.905-.388 3.287-1.122 4.145-2.202.881-1.086 1.157-2.44.827-4.063-.239-1.176-.818-1.976-1.737-2.402-.92-.425-2.12-.487-3.602-.186l-4.515.918.014 8.924 4.868-.989zm21.01-13.273l.032 5.578 11.465-2.331.022 4.624-11.501 2.338.033 5.945 13.477-2.74-.02 4.78-19.121 3.887-.082-25.698 18.662-3.795-.02 4.78-12.947 2.632zm30.457.935l11.27 11.521-6.421 1.306-8.315-8.375-3.27 4.338.014 6.389-5.68 1.155-.082-25.699 5.68-1.154.044 11.783 10.504-13.928 6.914-1.406-10.658 14.07zm44.898-13.06c.469 2.305.247 4.407-.665 6.307-.912 1.9-2.403 3.415-4.476 4.547l5.854 6.745-6.033 1.227-5.286-6.126-4.869.99.03 7.194-5.75 1.169-.082-25.699 10.054-2.044c3.058-.621 5.569-.434 7.535.562 1.966.996 3.195 2.706 3.688 5.128zm-10.65 7.97c1.905-.388 3.287-1.121 4.145-2.202.881-1.085 1.157-2.44.827-4.062-.239-1.176-.818-1.977-1.737-2.402-.92-.426-2.12-.488-3.602-.186l-4.515.918.014 8.924 4.868-.99zm21.01-13.272l.032 5.577 11.465-2.331.022 4.624-11.501 2.339.033 5.944 13.477-2.74-.02 4.78-19.121 3.888-.082-25.7 18.662-3.794-.02 4.78-12.947 2.633zm34.548 8.405l-11.501 2.338-2.135 5.944-6.103 1.241 10.96-27.944 5.645-1.147 11.089 23.46-5.715 1.163-2.24-5.055zm-1.835-4.146l-4.018-9.102-3.885 10.709 7.903-1.607zm12.27-18.181l5.75-1.17.053 20.857 12.382-2.518-.005 4.85-18.098 3.68-.082-25.7zm105.257 44.809c-4.557 8.46-9.946 15.759-16.167 21.899l7.817 11.345-16.502 12.292-7.96-11.361c-10.905 5.694-22.46 7.832-34.666 6.416-6.962-.807-13.044-2.527-18.247-5.16-5.097-2.718-8.956-6.113-11.576-10.186-2.513-4.157-3.472-8.811-2.874-13.96.796-6.866 3.829-12.603 9.099-17.21 5.377-4.692 12.897-8.7 22.56-12.025-3.543-6.113-4.977-12.078-4.303-17.895.664-5.722 2.723-10.557 6.177-14.505 3.549-3.937 7.984-6.757 13.303-8.46 5.415-1.69 11.222-2.177 17.42-1.458 8.011.93 14.285 3.493 18.823 7.692 4.634 4.21 6.58 9.51 5.839 15.899-.708 6.103-3.419 11.152-8.135 15.147-4.61 3.911-11.289 7.34-20.039 10.288l12.935 18.461c3.88-4.285 7.253-9.209 10.121-14.772l16.375 7.553zm-38.536-45.205c-3.719-.431-6.839.221-9.36 1.958-2.425 1.749-3.832 4.291-4.219 7.63-.188 1.62 0 3.333.564 5.138.659 1.816 1.804 4.027 3.434 6.632 6.424-2.057 10.908-4.05 13.451-5.978 2.554-2.023 3.991-4.417 4.312-7.183.244-2.098-.368-3.908-1.834-5.431-1.466-1.523-3.582-2.445-6.348-2.766zm-24.057 68.677c6.675.775 13.339-.434 19.991-3.624l-17.262-24.907c-5.638 1.955-9.9 4.118-12.785 6.49-2.778 2.287-4.366 5.147-4.764 8.58-.398 3.433.658 6.407 3.169 8.921 2.618 2.429 6.501 3.943 11.651 4.54z" fill="#333338"/><path d="M522.201 184.326l-240.248-72.153-1.611 49.722 229.193 32.77 12.666-10.339z" fill="#A2A2A2"/><path d="M284.619 105.439l248.311 25.574-11.569 55.474-249.674-25.713 12.932-55.335z" fill="#fff"/><path d="M311.7 134.681l7.13 14.453-6.508-.755-5.3-10.545-4.456 3.108-1.973 6.077-5.758-.668 7.91-24.451 5.758.667-3.62 11.214 14.312-9.973 7.009.813-14.504 10.06zm26.92 11.313l-11.658-1.353-3.877 4.987-6.186-.718 19.103-23.153 5.721.664 3.248 25.746-5.794-.672-.557-5.501zm-.456-4.511l-.99-9.9-7.02 8.971 8.01.929zm40.272-10.804l-7.91 24.452-4.756-.552-7.517-16.745-4.964 15.298-5.721-.664 7.91-24.452 4.792.556 7.512 16.782 4.932-15.338 5.722.663zm9.763 26.937c-3.147-.365-5.524-1.426-7.132-3.183-1.606-1.781-2.251-4.03-1.936-6.748.091-.787.291-1.67.597-2.649l4.416-13.694 5.829.676-4.403 13.587c-.235.77-.388 1.465-.46 2.085-.174 1.502.1 2.681.822 3.538.749.836 1.91 1.345 3.483 1.528 1.765.204 3.232-.157 4.403-1.084 1.17-.928 2.128-2.52 2.873-4.777l4.403-13.587 5.686.659-4.48 13.941c-2.392 7.285-7.092 10.521-14.101 9.708zm33.296-10.2l7.13 14.454-6.508-.755-5.3-10.545-4.456 3.108-1.973 6.077-5.758-.668 7.91-24.452 5.758.668-3.62 11.214 14.312-9.973 7.009.813-14.504 10.059zm26.92 11.314l-11.658-1.353-3.877 4.987-6.186-.718 19.103-23.153 5.721.664 3.248 25.745-5.794-.672-.557-5.5zm-.456-4.511l-.99-9.9-7.02 8.971 8.01.929zm21.602-8.258l-1.703 5.311 11.622 1.348-1.417 4.402-11.658-1.352-1.816 5.661 13.66 1.584-1.504 4.537-19.382-2.248 7.91-24.452 18.917 2.195-1.505 4.536-13.124-1.522zm43.421.325l-18.746 23.195-5.686-.66-2.925-25.708 5.972.693 1.971 18.313 13.406-16.53 6.008.697z" fill="#333338"/></svg>