<svg width="752" height="172" viewBox="0 0 752 172" fill="none" xmlns="http://www.w3.org/2000/svg"><path d="M16.9 79.167L741.587 0l-3.041 91.874L9.882 171.475 16.9 79.167z" fill="#333338"/><path d="M75.46 116.798c2.087.631 3.79 1.689 5.112 3.176 1.32 1.487 2.097 3.29 2.33 5.411.319 2.927-.438 5.627-2.27 8.102-1.79 2.471-4.337 4.509-7.638 6.114-3.258 1.601-6.86 2.616-10.805 3.047a35.24 35.24 0 0 1-9.23-.215c-3.057-.481-5.906-1.415-8.546-2.8l3.902-7.894c1.873 1.04 3.947 1.757 6.222 2.153a26.5 26.5 0 0 0 6.841.154c3.309-.362 6.038-1.304 8.19-2.827 2.194-1.527 3.172-3.372 2.936-5.535-.315-2.884-2.678-4.085-7.09-3.604l-11.006 1.203.68-7.929 10.306-1.126c2.248-.245 3.997-.93 5.248-2.054 1.288-1.171 1.847-2.541 1.675-4.11-.176-1.612-1.052-2.761-2.63-3.447-1.534-.691-3.531-.902-5.992-.633-1.866.204-3.872.702-6.017 1.494a29.616 29.616 0 0 0-6.168 3.056l-2.403-7.849c4.915-2.94 10.002-4.698 15.261-5.273 3.224-.352 6.18-.203 8.87.448 2.731.646 4.956 1.755 6.672 3.327 1.717 1.572 2.703 3.525 2.958 5.857.26 2.376-.289 4.624-1.645 6.747-1.319 2.075-3.24 3.744-5.762 5.007zm45.967 8.692l-20.741 2.266-4.747 10.175-11.006 1.203 23.955-47.684 10.179-1.112 15.809 43.34-10.307 1.126-3.142-9.314zm-2.573-7.638l-5.63-16.768-8.621 18.325 14.251-1.557zm59.197-33.957l-4.042 45.508-10.18 1.112 1.458-16.126c-3.726 1.652-7.158 2.649-10.296 2.992-5.217.57-9.346-.095-12.386-1.995-3.003-1.947-4.726-4.956-5.171-9.028a21.17 21.17 0 0 1-.02-4.311l1.191-13.843 10.18-1.112-1.234 13.461c-.087 1.169-.093 2.092-.019 2.771.445 4.072 3.148 5.836 8.111 5.294 3.648-.398 7.125-1.572 10.431-3.521l1.797-20.09 10.18-1.112zm20.564 6.123l-.853 9.879 20.677-2.26-.714 8.191-20.741 2.266-.91 10.529 24.303-2.655-.814 8.458-34.483 3.767 4.042-45.508 33.656-3.677-.814 8.459-23.349 2.55zm83.449-17.486l-3.978 45.501-9.607 1.05 2.382-27.108-14.667 23.685-4.644.508-11.58-21.14-2.411 27.432-9.607 1.05 4.042-45.508 8.398-.918 14.164 26.523 18.664-30.109 8.844-.966zm79.278-8.66l-3.978 45.5-9.607 1.05 2.382-27.107L335.473 107l-4.645.507-11.58-21.14-2.411 27.433-9.607 1.049 4.042-45.508 8.398-.917 14.164 26.522 18.665-30.109 8.843-.966zm30.985 11.422c9.882-1.08 15.266 2.431 16.151 10.532.385 3.52-.187 6.738-1.714 9.652-1.489 2.866-3.807 5.223-6.953 7.068-3.109 1.799-6.847 2.937-11.216 3.415l-20.104 2.196 4.042-45.508 10.179-1.112-1.328 14.953 10.943-1.196zm-3.675 22.935c3.096-.338 5.489-1.415 7.179-3.231 1.728-1.863 2.444-4.151 2.147-6.866-.213-1.95-.94-3.31-2.183-4.075-1.205-.812-3.037-1.084-5.497-.816l-9.607 1.05-1.328 14.953 9.289-1.015zm29.688-40.584l10.37-1.133-4.042 45.508-10.37 1.133 4.042-45.508zm62.397 14.88c2.086.63 3.79 1.689 5.111 3.175 1.321 1.487 2.098 3.29 2.329 5.411.32 2.927-.436 5.628-2.269 8.103-1.79 2.47-4.336 4.508-7.637 6.113-3.259 1.6-6.861 2.617-10.805 3.048a35.262 35.262 0 0 1-9.23-.215c-3.057-.482-5.906-1.415-8.547-2.8l3.902-7.895c1.873 1.04 3.947 1.758 6.222 2.153 2.313.348 4.594.4 6.842.154 3.308-.362 6.038-1.304 8.189-2.826 2.194-1.528 3.173-3.373 2.936-5.536-.315-2.884-2.678-4.085-7.089-3.603l-11.006 1.202.679-7.928 10.306-1.126c2.248-.246 3.998-.93 5.248-2.055 1.289-1.17 1.847-2.54 1.676-4.11-.176-1.611-1.053-2.76-2.63-3.447-1.535-.69-3.532-.901-5.992-.633-1.866.204-3.872.702-6.018 1.495-2.107.745-4.163 1.764-6.168 3.056l-2.403-7.85c4.915-2.94 10.003-4.698 15.262-5.272 3.223-.353 6.18-.203 8.869.447 2.732.646 4.956 1.755 6.673 3.327 1.717 1.572 2.702 3.525 2.957 5.858.26 2.375-.289 4.624-1.645 6.746-1.318 2.076-3.239 3.745-5.762 5.008zm54.935 8.87l6.298-.688-1.637 18.013-9.544 1.042.838-9.427-31.429 3.434-.838 9.426-9.543 1.043 1.638-18.012 1.336-.146c2.747-.386 4.9-2.682 6.458-6.886 1.601-4.21 2.846-9.904 3.735-17.083l1.764-13.906 34.229-3.74-3.305 36.93zm-23.784-18.518c-.689 5.483-1.46 10.01-2.315 13.58-.859 3.527-2.021 6.25-3.485 8.17l19.404-2.12 2.505-28.343-15.206 1.66-.903 7.053zm49.692-12.51l-.852 9.878 20.677-2.259-.715 8.19-20.74 2.266-.91 10.53 24.303-2.656-.814 8.459-34.483 3.767 4.042-45.508 33.656-3.677-.815 8.458-23.349 2.551zm52.518 31.732c-4.453.486-8.443.106-11.97-1.14-3.484-1.25-6.277-3.24-8.378-5.973-2.101-2.732-3.361-6.006-3.778-9.824-.551-5.047.099-9.71 1.949-13.99 1.888-4.327 4.804-7.886 8.748-10.677 3.944-2.792 8.631-4.484 14.06-5.077 3.987-.436 7.581-.142 10.783.882 3.202 1.024 5.727 2.722 7.574 5.096l-6.776 6.92c-2.755-3.218-6.529-4.565-11.322-4.042-3.266.357-6.067 1.435-8.402 3.236-2.336 1.8-4.06 4.092-5.172 6.874-1.07 2.778-1.429 5.779-1.077 9.002.375 3.436 1.756 6.053 4.141 7.853 2.423 1.752 5.607 2.413 9.552 1.982 4.708-.514 8.465-2.663 11.271-6.446l6.788 5.568c-3.85 5.614-9.847 8.866-17.991 9.755zm47.688-36.242c9.883-1.08 15.267 2.432 16.152 10.533.384 3.52-.187 6.737-1.715 9.65-1.489 2.868-3.807 5.224-6.953 7.07-3.108 1.799-6.847 2.937-11.216 3.414L637.95 78.72l4.042-45.508 10.179-1.112-1.328 14.953 10.943-1.196zm-3.675 22.935c3.096-.338 5.49-1.415 7.18-3.23 1.728-1.863 2.443-4.152 2.147-6.866-.213-1.951-.941-3.31-2.184-4.075-1.204-.813-3.037-1.085-5.497-.816l-9.607 1.05-1.328 14.952 9.289-1.015zm33.215-11.547c.183-2.252.834-4.147 1.954-5.686 1.115-1.581 2.687-3.298 4.716-5.15 1.714-1.604 2.962-2.942 3.746-4.015.78-1.115 1.093-2.373.94-3.773-.143-1.314-.808-2.293-1.994-2.936-1.149-.69-2.699-.929-4.65-.716-2.035.223-3.855.85-5.459 1.884-1.609.992-2.942 2.339-4.001 4.043l-7.215-4.17c1.626-2.795 3.972-5.09 7.038-6.884 3.103-1.842 6.691-2.985 10.763-3.43 4.496-.49 8.186.093 11.072 1.753 2.88 1.616 4.499 4.058 4.856 7.324.217 1.993.023 3.752-.583 5.278-.563 1.52-1.343 2.83-2.339 3.925-.954 1.092-2.212 2.345-3.774 3.76-1.718 1.561-3.03 2.907-3.937 4.036a6.993 6.993 0 0 0-1.527 3.707l-9.606 1.05zm4.225 15.698c-1.696.185-3.152-.17-4.365-1.068-1.219-.94-1.909-2.153-2.072-3.637-.194-1.781.261-3.312 1.366-4.591 1.105-1.28 2.569-2.02 4.393-2.219 1.654-.18 3.088.178 4.302 1.076 1.209.855 1.895 2.024 2.057 3.509.19 1.739-.263 3.29-1.358 4.655-1.1 1.322-2.541 2.08-4.323 2.275z" fill="#fff"/></svg>