<svg width="23" height="23" xmlns="http://www.w3.org/2000/svg" viewBox="0 0 57.79 57.2"><path d="M45.5 34.42a11.41 11.41 0 0 0-9.61 5.29l-13.56-8a11.53 11.53 0 0 0 .45-3.18 11.3 11.3 0 0 0-.33-2.68l14.25-8.51a11.51 11.51 0 1 0-1.5-3.92L20.74 22a11.39 11.39 0 1 0-.29 13.36l13.87 8.24a11.39 11.39 0 1 0 11.18-9.18zm.9-30.28a7.25 7.25 0 1 1-7.25 7.25 7.26 7.26 0 0 1 7.25-7.25zm-35 31.61a7.25 7.25 0 1 1 7.25-7.25 7.26 7.26 0 0 1-7.26 7.25zm34.1 17.31a7.25 7.25 0 1 1 7.25-7.25 7.26 7.26 0 0 1-7.25 7.25z"/></svg>