<svg width="19" height="22" viewBox="0 0 19 22" fill="none" xmlns="http://www.w3.org/2000/svg"><g clip-path="url(#a)" stroke="#fff" stroke-width="1.2" stroke-miterlimit="10" stroke-linecap="round" stroke-linejoin="round"><path d="M17.558 4.505L4.723 8.59V4.505L17.558.524v3.98zM4.723 8.59v11.315m12.835-15.4v11.419M2.67 21.476c1.19 0 2.156-.703 2.156-1.571s-.966-1.572-2.157-1.572c-1.19 0-2.156.704-2.156 1.572 0 .868.966 1.571 2.156 1.571zm12.834-3.981c1.134 0 2.054-.703 2.054-1.571s-.92-1.572-2.054-1.572-2.053.704-2.053 1.572c0 .868.92 1.571 2.053 1.571z"/></g><defs><clipPath id="a"><path fill="#fff" d="M0 0h18.071v22H0z"/></clipPath></defs></svg>