<svg width="31" height="26" viewBox="0 0 31 26" fill="none" xmlns="http://www.w3.org/2000/svg"><g clip-path="url(#a)" stroke="#fff" stroke-width="1.2" stroke-miterlimit="10" stroke-linecap="round" stroke-linejoin="round"><path d="M3.343 22.781c0-6.562 5.324-11.886 11.886-11.886 6.561 0 11.885 5.324 11.885 11.886m-2.476-2.476c-.866-3.22-3.466-5.82-6.685-6.81"/><path d="M27.362 25.38H3.219c-1.362 0-2.6-1.113-2.6-2.6h29.343c0 1.487-1.238 2.6-2.6 2.6zM15.229 10.895a1.61 1.61 0 1 0 0-3.219 1.61 1.61 0 0 0 0 3.22zM9.286 7.8c0-1.238 1.238-1.238 1.238-2.352 0-1.238-1.238-1.238-1.238-2.353 0-1.114 1.238-1.238 1.238-2.352M5.324 7.8c0-1.238 1.238-1.238 1.238-2.352 0-1.238-1.238-1.238-1.238-2.353 0-1.114 1.238-1.238 1.238-2.352M24.019 7.8c0-1.238 1.238-1.238 1.238-2.352 0-1.238-1.238-1.238-1.238-2.353 0-1.114 1.238-1.238 1.238-2.352m-5.2 7.057c0-1.238 1.238-1.238 1.238-2.352 0-1.238-1.238-1.238-1.238-2.353 0-1.114 1.238-1.238 1.238-2.352"/></g><defs><clipPath id="a"><path fill="#fff" d="M0 0h30.581v26H0z"/></clipPath></defs></svg>