<svg width="24" height="24" viewBox="0 0 24 24" fill="none" xmlns="http://www.w3.org/2000/svg"><g clip-path="url(#a)" fill="#fff"><path d="M11.994.009c2.538 0 5.076-.025 7.615.008 1.867.024 3.216.923 4.02 2.613.267.562.37 1.166.37 1.788v15.225a4.352 4.352 0 0 1-4.365 4.352c-5.068.007-10.136.007-15.204 0-2.219 0-3.994-1.504-4.37-3.682a5.14 5.14 0 0 1-.056-.865 9401.27 9401.27 0 0 1 0-15.021c0-2.095 1.374-3.837 3.39-4.3A4.983 4.983 0 0 1 4.48.013C6.985.004 9.49.01 11.994.01zM10.117 7.92v8.15a.406.406 0 0 0 .068.017c.954 0 1.907.004 2.862 0 1.098 0 1.942-.809 1.952-1.904a202.43 202.43 0 0 0 0-4.367c-.01-1.01-.77-1.85-1.75-1.89-1.037-.038-2.075-.006-3.132-.006zM5.19 13.904c.478 0 .911.003 1.343 0 1.062-.008 1.888-.788 1.922-1.849.024-.756.02-1.514 0-2.27-.027-.995-.792-1.824-1.755-1.857-1.028-.035-2.059-.007-3.088-.005-.014 0-.028.018-.047.032-.003.038-.01.08-.01.12v7.172a.811.811 0 0 0 .932.835c.41-.06.692-.395.7-.846.008-.432.003-.865.003-1.332zm11.46-5.986c-.006.069-.013.11-.013.153 0 2.402-.004 4.8.006 7.199a.96.96 0 0 0 .149.474.766.766 0 0 0 .873.315c.37-.106.598-.399.603-.817.009-.724.003-1.447.004-2.17v-.255c.497 0 .965.016 1.43-.006.433-.02.745-.39.74-.825a.798.798 0 0 0-.771-.797c-.457-.014-.915-.003-1.38-.003V9.551c.47 0 .92.01 1.371 0a.802.802 0 0 0 .779-.79c.01-.432-.307-.825-.73-.832-1.01-.023-2.022-.011-3.061-.011z"/><path d="M11.75 9.55c.451 0 .884-.005 1.316 0 .268.005.303.196.302.41v3.213c0 .298.003.595 0 .893-.002.298-.091.384-.377.386-.409.003-.813 0-1.24 0l-.002-4.902zm-6.552 2.717V9.552c.464 0 .92-.007 1.376.005.172.004.247.139.248.3.004.705.004 1.41 0 2.115 0 .161-.078.29-.255.292-.448.008-.897.003-1.37.003z"/></g><defs><clipPath id="a"><path fill="#fff" d="M0 0h24v24H0z"/></clipPath></defs></svg>