<svg width="14" xmlns="http://www.w3.org/2000/svg" viewBox="0 0 13.56 14.47"><style>.fill{fill:#515151}</style><path class="fill" d="M9.29 14.47a5.23 5.23 0 0 1-.73-.05 6.37 6.37 0 0 1-2.12-.72 9.93 9.93 0 0 1-1.68-1.14A15.39 15.39 0 0 1 3.19 11a18.41 18.41 0 0 1-1.24-1.46 12.43 12.43 0 0 1-1.2-2 8 8 0 0 1-.61-1.69A6 6 0 0 1 0 4.53a4.88 4.88 0 0 1 .38-1.89A4.43 4.43 0 0 1 1.52 1c.27-.24.55-.47.83-.7A1.49 1.49 0 0 1 3 0a1.31 1.31 0 0 1 .88.16 2.57 2.57 0 0 1 .73.66 8.15 8.15 0 0 1 .5.74l.13.2a6.69 6.69 0 0 1 .42.73 2.79 2.79 0 0 1 .34.94 1.69 1.69 0 0 1-.44 1.37 4.43 4.43 0 0 1-.33.32l-.16.14a4.1 4.1 0 0 1-.43.34l-.11.08a.52.52 0 0 0-.25.32.77.77 0 0 0 0 .38 2.45 2.45 0 0 0 .28.62 7.69 7.69 0 0 0 .82 1.15 11.44 11.44 0 0 0 .93 1 4.3 4.3 0 0 0 .91.69 1.13 1.13 0 0 0 .46.15.45.45 0 0 0 .32-.13l.08-.07a4.69 4.69 0 0 1 .53-.51l.12-.1a2.75 2.75 0 0 1 .45-.34 1.72 1.72 0 0 1 1.43-.14 3 3 0 0 1 1 .52l.72.6.15.13a4.57 4.57 0 0 1 .62.62 2.1 2.1 0 0 1 .37.63 1.3 1.3 0 0 1-.24 1.31 3.2 3.2 0 0 1-.31.32l-.58.52a4.53 4.53 0 0 1-1.23.77 4.65 4.65 0 0 1-1.29.33zM1 4.53a5.06 5.06 0 0 0 .12 1.1 7 7 0 0 0 .54 1.51 11.35 11.35 0 0 0 1.1 1.8 17.38 17.38 0 0 0 1.17 1.43 14.43 14.43 0 0 0 1.47 1.42 8.87 8.87 0 0 0 1.51 1 5.37 5.37 0 0 0 1.79.61 4.17 4.17 0 0 0 1 0 3.64 3.64 0 0 0 1-.26 3.45 3.45 0 0 0 1-.59l.52-.47a2.91 2.91 0 0 0 .27-.26.31.31 0 0 0 .07-.34 1.14 1.14 0 0 0-.2-.34 3.64 3.64 0 0 0-.49-.49l-.15-.13L11 10a2 2 0 0 0-.64-.35.74.74 0 0 0-.64.06 1.89 1.89 0 0 0-.29.23L9.3 10a3.56 3.56 0 0 0-.42.4 1.77 1.77 0 0 1-.18.18 1.5 1.5 0 0 1-1.08.42 2.12 2.12 0 0 1-.87-.27 5.29 5.29 0 0 1-1.13-.85 12.23 12.23 0 0 1-1-1.09 8.48 8.48 0 0 1-.92-1.3 3.46 3.46 0 0 1-.37-.91 1.75 1.75 0 0 1 0-.86 1.52 1.52 0 0 1 .61-.85L4 4.78a3.08 3.08 0 0 0 .33-.25l.18-.17c.09-.08.18-.16.26-.25A.69.69 0 0 0 5 3.53a1.83 1.83 0 0 0-.19-.6 5.66 5.66 0 0 0-.36-.62l-.13-.2a7.2 7.2 0 0 0-.44-.64 1.56 1.56 0 0 0-.44-.41.31.31 0 0 0-.22 0 .5.5 0 0 0-.22.06c-.27.22-.54.45-.8.68A3.43 3.43 0 0 0 1.3 3 3.9 3.9 0 0 0 1 4.53z"/></svg>