<svg width="26" height="16" xmlns="http://www.w3.org/2000/svg" viewBox="0 0 77.12 44.73"><style>.fill{fill:#000}</style><path class="fill" d="M75.48 12.43l1.64-.34V0H0v12.09l1.64.34A10.2 10.2 0 0 1 10 22.36a10.2 10.2 0 0 1-8.33 9.93L0 32.64v12.09h77.12V32.64l-1.64-.35a10.08 10.08 0 0 1 0-19.86zM63 22.36a14.24 14.24 0 0 0 10 13.55v4.68H4.14v-4.68a14.24 14.24 0 0 0 10-13.55 14.23 14.23 0 0 0-10-13.54V4.14H73v4.68a14.23 14.23 0 0 0-10 13.54z"/><path class="fill" d="M47.82 10.38a2.5 2.5 0 1 0 2.49 2.5 2.5 2.5 0 0 0-2.49-2.5zm0 9.12a2.49 2.49 0 1 0 2.49 2.5 2.49 2.49 0 0 0-2.49-2.5zm0 9.11a2.5 2.5 0 1 0 2.49 2.49 2.5 2.5 0 0 0-2.49-2.49z"/></svg>