<svg id="Слой_1" data-name="Слой 1" xmlns="http://www.w3.org/2000/svg" width="4.3mm" height="4.77mm" viewBox="0 0 12.19 13.53"><defs><style>.cls-1{stroke:#fff;stroke-miterlimit:10;stroke-width:1px}.fill{fill:#fff}</style></defs><path class="cls-1" d="M3 13.07V11c0-.22 0-.22-.21-.3a6.35 6.35 0 0 1-.79-.42A3.26 3.26 0 0 1 .58 8.36a7.91 7.91 0 0 1-.3-2.94c.06-.67.14-1.33.26-2a3.34 3.34 0 0 1 1.77-2.35A6.37 6.37 0 0 1 4.41.4 10 10 0 0 1 7.08.32a8.55 8.55 0 0 1 2.5.55 3.29 3.29 0 0 1 1.81 1.65 6 6 0 0 1 .43 1.55 11.66 11.66 0 0 1 .07 2.83 6.23 6.23 0 0 1-.61 2.28 3 3 0 0 1-1.89 1.55 6.66 6.66 0 0 1-1.87.27l-2 .09a.18.18 0 0 0-.12 0A25.89 25.89 0 0 1 3 13.07zm.55-1A14.55 14.55 0 0 0 5 10.87a.83.83 0 0 1 .62-.31c.58 0 1.15 0 1.73-.06a8.08 8.08 0 0 0 1.62-.21A2.67 2.67 0 0 0 11 8.44a7.61 7.61 0 0 0 .36-1.89 10 10 0 0 0-.27-3.22A2.64 2.64 0 0 0 9.9 1.66a4.21 4.21 0 0 0-1.2-.51 11 11 0 0 0-4-.23 6.27 6.27 0 0 0-1.9.54 2.77 2.77 0 0 0-1.61 1.71A9.77 9.77 0 0 0 .93 4.5a9.07 9.07 0 0 0 0 2.8 4.77 4.77 0 0 0 .48 1.57A2.2 2.2 0 0 0 2.68 10a5.72 5.72 0 0 1 .57.24.57.57 0 0 1 .34.52v.38z" transform="translate(0 -.02)"/><path class="fill" d="M2.48 3.94a1.13 1.13 0 0 1 .68-1l.13-.06a.65.65 0 0 1 .8.17 4.84 4.84 0 0 1 .85 1.2.47.47 0 0 1-.14.65l-.24.2a.56.56 0 0 0-.16.65 2.87 2.87 0 0 0 1 1.36 4.62 4.62 0 0 0 .72.41.51.51 0 0 0 .74-.21.6.6 0 0 1 .59-.31 1 1 0 0 1 .44.14c.36.24.71.49 1 .76a.53.53 0 0 1 .16.7 1.54 1.54 0 0 1-1 .87.76.76 0 0 1-.57 0 8.91 8.91 0 0 1-4.1-3.3 9.44 9.44 0 0 1-.92-1.89c.04-.17.04-.28.02-.34zm3.94-1.18l-.5.07a.3.3 0 0 1-.38-.21.3.3 0 0 1 .26-.34 3 3 0 0 1 3.57 3.55c0 .16-.11.26-.23.28a.28.28 0 0 1-.32-.35 2.41 2.41 0 0 0-.1-1.38 2.48 2.48 0 0 0-2.3-1.62z" transform="translate(0 -.02)"/><path class="fill" d="M8.61 5.23v.39A.28.28 0 0 1 8 5.56a3.64 3.64 0 0 0 0-.66 1.61 1.61 0 0 0-1.83-1.27.28.28 0 1 1-.08-.55 2.19 2.19 0 0 1 2.47 1.73 3.19 3.19 0 0 1 .05.42z" transform="translate(0 -.02)"/><path class="fill" d="M7.77 5.23a.28.28 0 0 1-.15.3.22.22 0 0 1-.28 0 .52.52 0 0 1-.12-.26.84.84 0 0 0-.68-.79h-.16a.28.28 0 0 1-.28-.29.28.28 0 0 1 .3-.27A1.4 1.4 0 0 1 7.74 5z" transform="translate(0 -.02)"/></svg>