<svg xmlns="http://www.w3.org/2000/svg" width="6.84mm" height="5.7mm" viewBox="0 0 19.4 16.17"><style>.fill{fill:#fff}</style><path class="fill" d="M19.4 14.01a6.66 6.66 0 0 1-.4 1 2.28 2.28 0 0 1-1.93 1.12H2.54A2.43 2.43 0 0 1 0 13.65V4.9a2.42 2.42 0 0 1 2.07-2.45 3.62 3.62 0 0 1 .47 0h2.12A.3.3 0 0 0 5 2.27c.42-.71.9-1.42 1.37-2.14a.26.26 0 0 1 .25-.12h6.15a.26.26 0 0 1 .23.13c.47.71 1 1.42 1.41 2.13a.32.32 0 0 0 .29.16h2.2a2.43 2.43 0 0 1 2.43 2.07v.1zm-9.7.52h7.2a.8.8 0 0 0 .88-.88v-8.7a.84.84 0 0 0-.92-.94h-3a.29.29 0 0 1-.29-.16l-1.38-2.09a.27.27 0 0 0-.27-.15H7.51a.3.3 0 0 0-.28.14L5.82 3.88a.31.31 0 0 1-.29.13h-3a.83.83 0 0 0-.91 1v8.66a.9.9 0 0 0 1 .94c2.32-.07 4.7-.06 7.08-.06z"/><path class="fill" d="M9.7 12.93a4 4 0 1 1 4-4 4.07 4.07 0 0 1-4 4zm0-1.62a2.43 2.43 0 1 0-2.43-2.42 2.42 2.42 0 0 0 2.43 2.42z"/></svg>