<svg width="16" xmlns="http://www.w3.org/2000/svg" viewBox="0 0 16.67 16.67"><style>.fill{fill:#515151}</style><path class="fill" d="M11.76 16.67A4.93 4.93 0 0 1 9.32 16a2.47 2.47 0 0 1-.35 0h-.75a7.63 7.63 0 0 1-3.4-.83 7.72 7.72 0 0 1-1.45-1 7.92 7.92 0 0 1-1.59-1.67A7.75 7.75 0 0 1 .64 7.25 3.59 3.59 0 0 1 .13 6c0-.16-.07-.33-.09-.49V4.43a4.93 4.93 0 0 1 1.11-2.68A4.77 4.77 0 0 1 3.31.27a4.82 4.82 0 0 1 4 .38 7.45 7.45 0 0 1 2.77.12 7.74 7.74 0 0 1 4.79 3.38A7.76 7.76 0 0 1 16 9.36a4.9 4.9 0 0 1-1.43 6.4 4.76 4.76 0 0 1-2.06.84 5.08 5.08 0 0 1-.75.07zM9.36 15a.93.93 0 0 1 .45.11 3.83 3.83 0 0 0 2.57.48 3.89 3.89 0 0 0 3.24-3.29 3.81 3.81 0 0 0-.49-2.53.83.83 0 0 1-.1-.51 6.76 6.76 0 0 0 0-1.53 6.76 6.76 0 0 0-5.21-6 6.56 6.56 0 0 0-2.42-.11 1 1 0 0 1-.61-.11 3.81 3.81 0 0 0-3.2-.3A3.77 3.77 0 0 0 1.91 2.4 3.9 3.9 0 0 0 1 4.53v.82c0 .15.05.3.09.46a3.8 3.8 0 0 0 .42 1.06.88.88 0 0 1 .11.53 6.75 6.75 0 0 0 1 4.58A6.9 6.9 0 0 0 4 13.54a6.71 6.71 0 0 0 1.26.83 6.63 6.63 0 0 0 3 .73h1.09zM16 9.41zm0-.11z"/><path class="fill" d="M8.39 13h.32a4.83 4.83 0 0 0 1.91-.45 2.76 2.76 0 0 0 1.47-1.53 2.71 2.71 0 0 0 .14-1.24 2.08 2.08 0 0 0-.68-1.39 3.68 3.68 0 0 0-1.49-.78c-.71-.2-1.43-.38-2.15-.56a2.56 2.56 0 0 1-1.16-.54.73.73 0 0 1-.08-1 1.46 1.46 0 0 1 .89-.53A3.22 3.22 0 0 1 8.8 5a1.23 1.23 0 0 1 .81.47c.19.25.35.53.54.78a1.08 1.08 0 0 0 .34.35.91.91 0 0 0 1.33-.83 1.63 1.63 0 0 0-.36-1 3.22 3.22 0 0 0-2-1.14 6 6 0 0 0-1.63-.09 4.51 4.51 0 0 0-2.09.58 2.18 2.18 0 0 0-1.06 1.52 3.43 3.43 0 0 0 0 .83 1.73 1.73 0 0 0 .34 1 2.76 2.76 0 0 0 1.12.89A12.19 12.19 0 0 0 8.41 9a4.35 4.35 0 0 1 1.26.42A1 1 0 0 1 10 11a1.58 1.58 0 0 1-.73.47 3.12 3.12 0 0 1-1.27.16 1.79 1.79 0 0 1-1.63-1.11A3.93 3.93 0 0 0 6 9.81a.87.87 0 0 0-1-.22.83.83 0 0 0-.52.85 2.55 2.55 0 0 0 1 1.72 3.39 3.39 0 0 0 1.46.73 6.12 6.12 0 0 0 1.45.11z"/></svg>