<svg width="23" height="30" viewBox="0 0 23 30" fill="none" xmlns="http://www.w3.org/2000/svg"><g clip-path="url(#a)" stroke="#fff" stroke-width="1.2" stroke-miterlimit="10" stroke-linecap="round" stroke-linejoin="round"><path d="M18.365 14.947l-.422-1.922-1.69-6.94h-9.92l-1.689 6.94-.422 1.922c-.739 3.202.844 6.619 3.905 7.9.95.427 2.005.64 3.166.64s2.217-.213 3.167-.64a6.938 6.938 0 0 0 3.905-7.9zm-9.499 6.405c-2.322-.96-3.589-3.523-2.955-6.085"/><path d="M4.75 11.424C2.322 10.783.528 8.648.528 6.085.528 2.99 3.166.534 6.333.534c3.166 0 5.805 2.455 5.805 5.551M6.333.534v5.551m-5.805 0h11.715M2.217 2.135l4.116 3.95m4.222-3.95l-8.338 7.9m10.132 13.453v5.978h-2.111v-5.979m-4.75 5.979h11.61M4.75 12.918h13.087m-5.488 0L15.515.534h6.016"/></g><defs><clipPath id="a"><path fill="#fff" d="M0 0h22.059v30H0z"/></clipPath></defs></svg>