<svg width="19" height="15" viewBox="0 0 19 15" fill="none" xmlns="http://www.w3.org/2000/svg"><path d="M3.958 1.5H1.583V.75h2.375v.75zm9.5 6.75c0 1.655-1.42 3-3.166 3-1.747 0-3.167-1.345-3.167-3 0-1.654 1.42-3 3.167-3 1.746 0 3.166 1.346 3.166 3zm-.791 0c0-1.243-1.063-2.25-2.375-2.25-1.313 0-2.375 1.007-2.375 2.25s1.062 2.25 2.375 2.25c1.312 0 2.375-1.007 2.375-2.25zm6.333-6V15H0V2.25h4.695c.53 0 1.023-.25 1.317-.668L7.125 0h6.333l1.113 1.582a1.61 1.61 0 0 0 1.318.668H19zm-15.042 3c0-.414-.354-.75-.791-.75-.438 0-.792.336-.792.75s.354.75.792.75c.437 0 .791-.336.791-.75zm11.084 3c0-2.486-2.127-4.5-4.75-4.5s-4.75 2.014-4.75 4.5 2.127 4.5 4.75 4.5 4.75-2.014 4.75-4.5z" fill="#fff"/></svg>