<svg xmlns="http://www.w3.org/2000/svg" width="8" viewBox="0 0 34.757 73.058"><style>.st0{fill:#fff}</style><path class="st0" d="M20.179 73.058h-5.6v-7.856C8.373 64.375 3.475 61.491 0 56.612l4.563-3.248c2.427 3.408 5.717 5.441 10.017 6.175V38.775a170.951 170.951 0 0 1-3.106-1.271 33.514 33.514 0 0 1-5.375-2.831c-1.881-1.229-3.378-2.897-4.446-4.954C.57 27.634.114 25.202.299 22.495c.314-4.588 2.289-8.234 5.87-10.838 2.462-1.79 5.28-2.861 8.412-3.203V0h5.6v8.566c6.207.828 11.105 3.712 14.579 8.591l-4.563 3.248c-2.426-3.409-5.717-5.441-10.017-6.176v20.764c1.037.413 2.075.837 3.104 1.27 1.952.82 3.762 1.772 5.376 2.831 1.883 1.232 3.379 2.9 4.446 4.955 1.085 2.085 1.54 4.516 1.354 7.225-.313 4.586-2.288 8.232-5.869 10.837-2.462 1.79-5.279 2.861-8.411 3.204v7.743zm0-32.022v18.635c1.911-.295 3.604-.987 5.118-2.089 2.208-1.605 3.378-3.794 3.575-6.691.117-1.689-.124-3.082-.735-4.258-.629-1.211-1.461-2.144-2.546-2.854-1.331-.873-2.838-1.664-4.478-2.354l-.934-.389zm-5.6-26.939c-1.912.295-3.604.988-5.119 2.089-2.208 1.605-3.378 3.794-3.575 6.691-.116 1.69.125 3.084.736 4.26.629 1.21 1.46 2.143 2.544 2.851a27.824 27.824 0 0 0 4.478 2.354c.312.131.623.261.937.39V14.097z"/></svg>