<svg data-name="Слой 1" xmlns="http://www.w3.org/2000/svg" width="4.94mm" height="3.35mm" viewBox="0 0 14.01 9.5"><path d="M12 7.59c-2.4 2.57-7.49 2.54-9.89 0-.2.34-.39.68-.6 1a.77.77 0 0 1-.9.34.78.78 0 0 1-.61-.8 1 1 0 0 1 .12-.37q.77-1.32 1.54-2.63A.79.79 0 1 1 3 5.9a.3.3 0 0 0 0 .4 4.32 4.32 0 0 0 2.52 1.43 5.79 5.79 0 0 0 4.48-.6 7.06 7.06 0 0 0 1-.86.28.28 0 0 0 0-.38.78.78 0 0 1 .3-1.11.77.77 0 0 1 1.08.35q.77 1.31 1.52 2.64a.79.79 0 1 1-1.37.79c-.2-.31-.38-.64-.53-.97zm-6.38-6.3a1.27 1.27 0 0 1-1.29 1.28 1.29 1.29 0 0 1-1.27-1.28A1.31 1.31 0 0 1 4.36 0a1.29 1.29 0 0 1 1.26 1.29zM9.7 2.57a1.29 1.29 0 0 1-1.29-1.29A1.31 1.31 0 0 1 9.69 0 1.3 1.3 0 0 1 11 1.27a1.27 1.27 0 0 1-1.3 1.3z"/></svg>