<svg width="20" height="23" fill="none" xmlns="http://www.w3.org/2000/svg"><path d="M17.503 7.298H1.892a1.66 1.66 0 00-1.66 1.66v12.064a1.66 1.66 0 001.66 1.66h15.611a1.66 1.66 0 001.661-1.66V8.97a1.662 1.662 0 00-1.66-1.672zM1.386 20.306V8.959a.506.506 0 01.506-.504h15.611a.506.506 0 01.504.504v12.067a.506.506 0 01-.504.506H1.892a.506.506 0 01-.506-.507v-.72z" fill="#fff"/><path d="M13.955 11.65a.446.446 0 01-.443-.445V5.822a3.891 3.891 0 00-3.623-3.921 3.822 3.822 0 00-4.01 3.813v5.494a.446.446 0 01-.759.314.446.446 0 01-.13-.314v-5.36c0-2.533 1.938-4.705 4.47-4.838a4.705 4.705 0 014.943 4.704v5.494a.443.443 0 01-.448.443z" fill="#fff"/><path d="M13.956 11.79a.584.584 0 01-.582-.584V5.82A3.734 3.734 0 009.88 2.037a3.68 3.68 0 00-3.875 3.675v5.494a.584.584 0 11-1.165 0V5.848A4.912 4.912 0 019.44.867a4.849 4.849 0 015.09 4.84V11.2a.584.584 0 01-.573.589zM9.693 1.755h.203a4.01 4.01 0 013.758 4.06V11.2a.306.306 0 00.597.127.306.306 0 00.014-.127V5.712A4.571 4.571 0 009.467 1.15 4.633 4.633 0 005.13 5.854v5.357a.307.307 0 10.611 0V5.712a3.96 3.96 0 013.952-3.957z" fill="#fff"/></svg>