<svg data-name="Слой 1" xmlns="http://www.w3.org/2000/svg" width="4.38mm" height="4.4mm" viewBox="0 0 12.42 12.47"><style>.fill{fill:#fff}</style><path class="fill" d="M0 12.47c.11-.41.23-.82.34-1.22.17-.65.35-1.25.52-1.94a.08.08 0 0 0 0-.08 6.09 6.09 0 0 1-.74-2.15 5.65 5.65 0 0 1 0-1.48 6.16 6.16 0 0 1 1.22-3.19 6.17 6.17 0 0 1 4-2.35A6.36 6.36 0 0 1 6.72 0a6.21 6.21 0 0 1 1.89.47 5.89 5.89 0 0 1 1.73 1.09 6.25 6.25 0 0 1 1.28 1.57 5.89 5.89 0 0 1 .64 1.66 5.9 5.9 0 0 1 .15 1.77 6.21 6.21 0 0 1-.5 2.09 6.33 6.33 0 0 1-1.16 1.76 6.1 6.1 0 0 1-2 1.44 5.51 5.51 0 0 1-1.38.42 5.63 5.63 0 0 1-1.42.09A6.2 6.2 0 0 1 4 11.93l-.64-.29a.14.14 0 0 0-.09 0L0 12.47zM1.48 11l1.87-.49a.16.16 0 0 1 .1 0 3.83 3.83 0 0 0 .44.25 5 5 0 0 0 2 .55 5.26 5.26 0 0 0 1.43-.12 5.12 5.12 0 0 0 2.78-1.7 5.06 5.06 0 0 0 1.16-4.07 5 5 0 0 0-.53-1.63A5.13 5.13 0 0 0 8.57 1.6a5.14 5.14 0 0 0-5.78.77A5.21 5.21 0 0 0 1.45 4.3a5.07 5.07 0 0 0-.31 2.53 5 5 0 0 0 .49 1.64c.11.2.23.4.35.6a.09.09 0 0 1 0 .07c-.13.51-.27 1-.41 1.52-.02.11-.05.22-.09.34z"/><path class="fill" d="M4.22 3.33h.18a.22.22 0 0 1 .19.09 2.12 2.12 0 0 1 .11.21c.17.39.32.77.48 1.15a.31.31 0 0 1 0 .25 2.09 2.09 0 0 1-.41.53.22.22 0 0 0 0 .32 4.09 4.09 0 0 0 1.51 1.55c.2.11.41.2.61.29a.2.2 0 0 0 .27-.06c.16-.2.33-.4.48-.6S7.81 6.9 8 7l.58.26.69.34a.24.24 0 0 1 .15.24 1.86 1.86 0 0 1-.13.62.8.8 0 0 1-.29.25 1.94 1.94 0 0 1-.7.39 1.84 1.84 0 0 1-.57.05A2.58 2.58 0 0 1 6.94 9a5.21 5.21 0 0 1-1.76-1A7.18 7.18 0 0 1 4 6.78c-.18-.25-.36-.5-.53-.77a2.55 2.55 0 0 1-.35-.89 1.78 1.78 0 0 1 .48-1.57.64.64 0 0 1 .4-.21 2.45 2.45 0 0 1 .27 0z"/></svg>