<svg width="13" height="14" viewBox="0 0 13 14" fill="none" xmlns="http://www.w3.org/2000/svg"><path d="M13 6.5v2.817a3.643 3.643 0 0 1-2.361 3.378A4.87 4.87 0 0 1 8.806 13H3.921a3.895 3.895 0 0 1-2.222-.635A3.6 3.6 0 0 1 .1 10.178a3.818 3.818 0 0 1-.1-.847V3.77c0-.955.267-1.812.947-2.503A3.896 3.896 0 0 1 3.4.04C3.985-.013 4.57.003 5.142 0h3.732c.844 0 1.654.137 2.375.605a3.611 3.611 0 0 1 1.63 2.142c.075.306.113.62.115.935.014.939 0 1.878 0 2.817L13 6.5zM.974 6.5v2.844c0 1.101.584 1.847 1.52 2.357.454.23.959.34 1.468.322h5.031a3.239 3.239 0 0 0 1.664-.427c.88-.51 1.363-1.262 1.363-2.285.012-1.899.016-3.798 0-5.699 0-1.124-.637-1.866-1.597-2.359A2.968 2.968 0 0 0 9.038.97H4.034a3.274 3.274 0 0 0-1.543.34C1.558 1.796.995 2.55.974 3.632c-.023.957 0 1.913 0 2.87z" fill="#fff"/><path d="M6.506 9.278a3.013 3.013 0 1 1 3.058-3.007 3.042 3.042 0 0 1-3.058 3.007zM4.427 6.265A2.084 2.084 0 1 0 6.512 4.22a2.076 2.076 0 0 0-2.085 2.045zm6.133-3.267a.641.641 0 1 1-.638-.664.662.662 0 0 1 .637.664z" fill="#fff"/></svg>