<svg width="15" height="13" viewBox="0 0 15 13" fill="none" xmlns="http://www.w3.org/2000/svg"><path d="M7.493 1.677c.201-.2.39-.388.581-.575.909-.89 2.052-1.188 3.345-1.074 1.765.155 2.79 1.133 3.316 2.593.455 1.266.299 2.518-.27 3.733-.522 1.114-1.302 2.07-2.194 2.955-1.413 1.403-3.039 2.578-4.74 3.67A.372.372 0 0 1 7.48 13c-.433-.292-.88-.584-1.317-.887-1.383-.962-2.695-1.996-3.828-3.206C1.496 8.012.769 7.05.354 5.922c-.526-1.424-.502-2.828.318-4.164C1.2.897 1.984.285 3.067.095 4.584-.17 5.949.095 7.02 1.2l.473.478z" fill="#fff"/></svg>