<svg width="12" height="7" viewBox="0 0 12 7" fill="none" xmlns="http://www.w3.org/2000/svg"><path d="M7.062 1.721c0 .307-.012.597-.014.882-.004.156.014.312.054.463a.467.467 0 0 0 .153.245.148.148 0 0 0 .133.026.562.562 0 0 0 .217-.13c.148-.14.282-.294.399-.46A8.766 8.766 0 0 0 9.022.857a9.91 9.91 0 0 0 .135-.338.376.376 0 0 1 .174-.205.419.419 0 0 1 .158-.026h2.157c.06.007.118.023.174.047a.216.216 0 0 1 .15.213.931.931 0 0 1-.069.354 4.244 4.244 0 0 1-.437.813c-.324.505-.694.976-1.04 1.457a8.41 8.41 0 0 0-.33.494.491.491 0 0 0-.08.316.51.51 0 0 0 .139.286c.127.138.255.273.39.402.363.33.703.683 1.018 1.059.148.178.274.373.379.58a.65.65 0 0 1 .052.177.326.326 0 0 1-.151.353.744.744 0 0 1-.387.118c-.512.014-1.024.01-1.534.04a1.268 1.268 0 0 1-.898-.314 4.214 4.214 0 0 1-.52-.518c-.174-.193-.335-.387-.52-.57a1.183 1.183 0 0 0-.266-.2.303.303 0 0 0-.394.064.869.869 0 0 0-.175.363 2.625 2.625 0 0 0-.092.625 1.6 1.6 0 0 1-.016.157.365.365 0 0 1-.242.291.684.684 0 0 1-.266.055h-.694a3.337 3.337 0 0 1-1.18-.231A4.536 4.536 0 0 1 2.88 5.485a11.28 11.28 0 0 1-1.284-1.75A24.824 24.824 0 0 1 .036.711.439.439 0 0 1 .001.493.155.155 0 0 1 .09.363.606.606 0 0 1 .366.296H2.09a.524.524 0 0 1 .461.353c.15.4.328.788.536 1.16.225.415.478.813.758 1.191.095.14.212.263.347.364a.277.277 0 0 0 .312.032.295.295 0 0 0 .12-.142 1.48 1.48 0 0 0 .114-.464 6.89 6.89 0 0 0 .023-1.122 4.059 4.059 0 0 0-.068-.665c-.01-.055-.03-.107-.04-.162a.364.364 0 0 0-.187-.237.873.873 0 0 0-.394-.132c-.04 0-.053-.021-.036-.056a.39.39 0 0 1 .059-.097.795.795 0 0 1 .484-.256A4.21 4.21 0 0 1 5.395 0c.304 0 .609 0 .914.02.133.008.264.03.392.065a.46.46 0 0 1 .262.156c.067.08.106.182.11.288.014.17.02.341.015.512-.003.231-.017.464-.026.68z" fill="#fff"/></svg>