<svg width="10" height="8" viewBox="0 0 10 8" fill="none" xmlns="http://www.w3.org/2000/svg"><path d="M10 .99l-.06.066a4.02 4.02 0 0 1-.895.896.154.154 0 0 0-.067.146 5.758 5.758 0 0 1-.742 3A5.904 5.904 0 0 1 6.038 7.31a5.927 5.927 0 0 1-3.33.664 5.85 5.85 0 0 1-2.614-.797L0 7.131a4.36 4.36 0 0 0 1.578-.126 4.137 4.137 0 0 0 1.415-.737 2.126 2.126 0 0 1-1.168-.4 2.062 2.062 0 0 1-.735-.974h.447c.143-.01.286-.03.426-.06a2.07 2.07 0 0 1-1.16-.719A2 2 0 0 1 .36 2.842c.142.053.284.12.433.16.149.037.3.061.454.072-.418-.3-.71-.739-.82-1.234A1.959 1.959 0 0 1 .678.386a5.844 5.844 0 0 0 1.878 1.482c.723.36 1.516.57 2.327.616 0-.14 0-.26-.034-.386a1.957 1.957 0 0 1 .137-.833 1.99 1.99 0 0 1 .477-.703A2.068 2.068 0 0 1 7.048.008a2.05 2.05 0 0 1 1.293.577.136.136 0 0 0 .15.04A4.374 4.374 0 0 0 9.586.226l.108-.053a1.61 1.61 0 0 1-.338.624c-.156.173-.332.326-.508.492l.677-.173c.115 0 .223-.08.339-.12h.101L10 .99z" fill="#fff"/></svg>