<svg width="22" height="17" viewBox="0 0 22 17" fill="none" xmlns="http://www.w3.org/2000/svg"><path d="M3.94 16.559c-1.006 0-1.95-.333-2.661-.936-1.467-1.245-1.467-3.27 0-4.516l11.634-9.873C13.851.438 15.098 0 16.424 0c1.327 0 2.575.438 3.512 1.234.938.796 1.455 1.854 1.455 2.98 0 1.125-.516 2.183-1.454 2.979l-9.16 7.77a.795.795 0 0 1-.994 0 .535.535 0 0 1 0-.844l9.158-7.77c.672-.571 1.042-1.33 1.042-2.135 0-.806-.37-1.565-1.042-2.135-.673-.57-1.566-.885-2.517-.885-.95 0-1.843.314-2.516.885L2.274 11.952c-.918.78-.918 2.047 0 2.827.89.755 2.441.755 3.332 0l7.812-6.63a.906.906 0 0 0 .334-.684.895.895 0 0 0-.334-.684c-.444-.377-1.168-.378-1.612 0l-5.335 4.528a.795.795 0 0 1-.996 0 .535.535 0 0 1 0-.845l5.336-4.528c.992-.842 2.608-.842 3.602 0 .482.41.747.952.747 1.529 0 .57-.272 1.126-.746 1.529L6.6 15.624c-.71.602-1.655.935-2.66.935z" fill="#fff"/></svg>