<svg data-name="Слой 1" xmlns="http://www.w3.org/2000/svg" width="18.18" height="4.33mm" viewBox="0 0 13.63 12.29"><path d="M7.47 10l-.6.5c-.34.29-.68.59-1 .87a.9.9 0 0 1-.8.16 1 1 0 0 1-.71-.53c-.11-.27-.2-.55-.29-.82l-.68-2.11A.09.09 0 0 0 3.33 8L.83 7a1.41 1.41 0 0 1-.47-.29 1.11 1.11 0 0 1-.14-1.47 1.32 1.32 0 0 1 .6-.44l1.53-.64 3.44-1.45 2.34-1L11.41.35c.23-.1.46-.2.7-.28a1.13 1.13 0 0 1 1 .11 1.06 1.06 0 0 1 .48.75 1.9 1.9 0 0 1 0 .7l-.39 1.88-.38 1.93-.4 2-.39 2c-.12.59-.23 1.18-.35 1.77a1.35 1.35 0 0 1-1.08 1 1.21 1.21 0 0 1-1.08-.34l-.34-.33-1.48-1.29zm4.73-8.55L1.73 5.9l1.65.66.62.28a.11.11 0 0 0 .11 0L6.7 5.36 9.9 3.5a.65.65 0 0 1 .16-.07.13.13 0 0 1 .16.16.2.2 0 0 1 0 .08l-.22.16L7.87 6 6.18 7.72a.23.23 0 0 0-.06.1l-.45 1.75-.07.27.95-.84A1.38 1.38 0 0 1 8.4 9l1.89 1.75.06.05z"/></svg>