<svg data-name="Слой 1" xmlns="http://www.w3.org/2000/svg" width="50.532" height="50.532" viewBox="0 0 37.9 37.89"><title>день</title><path d="M0 18.66a3 3 0 0 1 2.82-1.77 3.91 3.91 0 0 1 2.57.61 1.64 1.64 0 0 1 0 2.93 4.36 4.36 0 0 1-4.49 0 2.51 2.51 0 0 1-.9-1.18zM19.25 0A3.46 3.46 0 0 1 21 3.89a3.41 3.41 0 0 1-.9 1.9 1.47 1.47 0 0 1-2.25 0 4 4 0 0 1-.76-1.29A4.09 4.09 0 0 1 17 2.06 2.71 2.71 0 0 1 18.66 0zM37.9 19.25a3.66 3.66 0 0 1-4.74 1.49 3.52 3.52 0 0 1-1.1-.72 1.42 1.42 0 0 1 0-2.14 4.07 4.07 0 0 1 1.34-.81 4.13 4.13 0 0 1 2.65 0 2.65 2.65 0 0 1 1.84 1.6zm-10.44 9.87a1.59 1.59 0 0 1 2.09-1.63 4.3 4.3 0 0 1 3.22 3.34 1.59 1.59 0 0 1-1.75 2 4.14 4.14 0 0 1-3.56-3.71zm1.63-18.68a1.6 1.6 0 0 1-1.59-2.11 4.31 4.31 0 0 1 3.32-3.19 1.59 1.59 0 0 1 2 1.7 4.12 4.12 0 0 1-3.73 3.6zM10.44 29.12a4.15 4.15 0 0 1-2.85 3.52 3.11 3.11 0 0 1-.91.14 1.51 1.51 0 0 1-1.57-1.56 4.1 4.1 0 0 1 3.68-3.75 1.51 1.51 0 0 1 1.65 1.65zm0-20.32a1.59 1.59 0 0 1-2.11 1.6 4.3 4.3 0 0 1-3.2-3.33 1.59 1.59 0 0 1 1.71-2 4.13 4.13 0 0 1 3.6 3.73zM21 34.58a4 4 0 0 1-.69 2.5 1.6 1.6 0 0 1-2.78 0 4.29 4.29 0 0 1 0-4.7 1.61 1.61 0 0 1 2.78 0 3.68 3.68 0 0 1 .69 2.2zM19 8.44a10.51 10.51 0 1 0 10.49 10.5A10.5 10.5 0 0 0 19 8.44z"/></svg>