<svg data-name="Слой 1" xmlns="http://www.w3.org/2000/svg" width="5.21mm" height="4.25mm" viewBox="0 0 14.77 12.04"><path d="M14.77 1.48l-.09.1a6 6 0 0 1-1.32 1.35.23.23 0 0 0-.1.22A8.81 8.81 0 0 1 8.92 11 8.61 8.61 0 0 1 4 12a8.52 8.52 0 0 1-3.86-1.2L0 10.73a6.32 6.32 0 0 0 2.33-.19 6.07 6.07 0 0 0 2.09-1.11 3.1 3.1 0 0 1-2.81-2.07h.66a4.62 4.62 0 0 0 .63-.09 3.05 3.05 0 0 1-2.37-3c.21.08.42.18.64.24a3.88 3.88 0 0 0 .67.11A3.13 3.13 0 0 1 .63 2.76 3 3 0 0 1 1 .57a8.66 8.66 0 0 0 6.21 3.16c0-.21 0-.39-.05-.58A3 3 0 0 1 10.41 0a3 3 0 0 1 1.91.87.2.2 0 0 0 .22.06 6.38 6.38 0 0 0 1.62-.6l.16-.08a2.44 2.44 0 0 1-.5.94c-.23.26-.49.49-.75.74l1-.26c.17 0 .33-.12.5-.18h.15z"/></svg>