<svg id="Слой_1" data-name="Слой 1" xmlns="http://www.w3.org/2000/svg" width="2.74mm" height="4.56mm" viewBox="0 0 7.76 12.93"><style>.fill{fill:#fff}</style><path class="fill" d="M3.26 9.11L2.82 9A4.64 4.64 0 0 1 .28 7.92.78.78 0 0 1 0 7.5a.83.83 0 0 1 .23-.73.76.76 0 0 1 1-.11c.21.12.39.27.6.39a4.2 4.2 0 0 0 1.5.44 4.38 4.38 0 0 0 2.29-.32 4.65 4.65 0 0 0 .7-.41A1.19 1.19 0 0 1 7 6.53a.76.76 0 0 1 .69.47.73.73 0 0 1-.28 1 4.3 4.3 0 0 1-1.23.75 6.26 6.26 0 0 1-1.36.34h-.3l.09.11 2.32 2.32a.75.75 0 0 1 .18.88.85.85 0 0 1-.76.52.69.69 0 0 1-.5-.22l-1.68-1.65-.17-.21c-.05-.06-.09-.06-.15 0l-.93.93c-.32.32-.63.64-1 .95a.72.72 0 0 1-1 0 .86.86 0 0 1-.28-.48.7.7 0 0 1 .19-.63l1.25-1.25 1.1-1.15z"/><path class="fill" d="M3.88 0A3.27 3.27 0 1 1 .62 3.24 3.26 3.26 0 0 1 3.88 0zM2.26 3.25a1.62 1.62 0 1 0 1.65-1.6 1.62 1.62 0 0 0-1.65 1.6z"/></svg>