<svg width="14" height="14" viewBox="0 0 14 14" fill="none" xmlns="http://www.w3.org/2000/svg">
<g clip-path="url(#clip0)">
<path d="M8.23753 6.20008C8.92097 6.88352 8.92097 7.99159 8.23753 8.67503C7.55409 9.35847 6.44602 9.35847 5.76258 8.67503C5.07914 7.99159 5.07914 6.88352 5.76258 6.20008C6.44602 5.51664 7.55409 5.51664 8.23753 6.20008Z" fill="#B7D7E4"/>
<path d="M12.25 2.62482H11.0408L10.1654 0.874756H3.8338L2.95919 2.62568L1.75175 2.62783C0.789145 2.62955 0.00553173 3.41399 0.00470054 4.37703L0 11.3747C0 12.3398 0.784875 13.1252 1.75006 13.1252H12.25C13.2152 13.1252 14 12.3403 14 11.3751V4.37485C14 3.40969 13.2151 2.62482 12.25 2.62482ZM6.99978 10.9376C5.06984 10.9376 3.49966 9.36739 3.49966 7.43745C3.49966 5.50751 5.06984 3.93733 6.99978 3.93733C8.92973 3.93733 10.4999 5.50751 10.4999 7.43745C10.4999 9.36739 8.92973 10.9376 6.99978 10.9376Z" fill="#B7D7E4"/>
</g>
<defs>
<clipPath id="clip0">
<rect width="14" height="14" fill="white"/>
</clipPath>
</defs>
</svg>
