<svg width="17" xmlns="http://www.w3.org/2000/svg" viewBox="0 0 69.19 39.67"><path d="M40.7 9.75c0 1.74-.07 3.38-.08 5a9.3 9.3 0 0 0 .31 2.62 2.64 2.64 0 0 0 .88 1.39.86.86 0 0 0 .77.15 3.25 3.25 0 0 0 1.25-.74 16.8 16.8 0 0 0 2.3-2.61A49.42 49.42 0 0 0 52 4.86c.27-.64.53-1.27.78-1.92a2.14 2.14 0 0 1 1-1.16 2.45 2.45 0 0 1 .91-.15h12.44a3.83 3.83 0 0 1 1 .27A1.21 1.21 0 0 1 69 3.11a5.2 5.2 0 0 1-.4 2 24.24 24.24 0 0 1-2.52 4.61c-1.87 2.86-4 5.53-6 8.26-.67.91-1.3 1.85-1.9 2.8a2.75 2.75 0 0 0-.46 1.79 2.87 2.87 0 0 0 .8 1.62c.73.78 1.47 1.55 2.25 2.28a62.11 62.11 0 0 1 5.87 6 17.55 17.55 0 0 1 2.18 3.29 3.64 3.64 0 0 1 .3 1 1.82 1.82 0 0 1-.87 2 4.34 4.34 0 0 1-2.23.67c-2.95.08-5.9.06-8.84.23A7.39 7.39 0 0 1 52 37.88a24.1 24.1 0 0 1-3-2.94c-1-1.09-1.93-2.19-3-3.23a6.81 6.81 0 0 0-1.53-1.13 1.77 1.77 0 0 0-2.27.36A4.89 4.89 0 0 0 41.19 33a14.64 14.64 0 0 0-.53 3.54 8.94 8.94 0 0 1-.09.89 2.05 2.05 0 0 1-1.4 1.65 4 4 0 0 1-1.53.31h-4a19.53 19.53 0 0 1-6.81-1.31 26.16 26.16 0 0 1-10.24-7 64 64 0 0 1-7.4-9.92 140.47 140.47 0 0 1-9-17.13A2.45 2.45 0 0 1 0 2.79a.87.87 0 0 1 .51-.74 3.54 3.54 0 0 1 1.59-.38h9.94a3.05 3.05 0 0 1 2.66 2 47 47 0 0 0 3.09 6.58A57.5 57.5 0 0 0 22.16 17a8.63 8.63 0 0 0 2 2.06 1.61 1.61 0 0 0 1.8.18 1.68 1.68 0 0 0 .69-.8 8.27 8.27 0 0 0 .66-2.63 38.59 38.59 0 0 0 .13-6.36 22.63 22.63 0 0 0-.39-3.77c-.06-.31-.17-.61-.23-.92a2.05 2.05 0 0 0-1.08-1.34 5.09 5.09 0 0 0-2.27-.75c-.23 0-.31-.12-.21-.32a2.2 2.2 0 0 1 .34-.55A4.61 4.61 0 0 1 26.39.35a24.68 24.68 0 0 1 4.7-.35c1.75 0 3.51 0 5.27.11a11.59 11.59 0 0 1 2.26.37A2.66 2.66 0 0 1 40.76 3a25.47 25.47 0 0 1 .09 2.9c-.02 1.31-.1 2.63-.15 3.85z"/></svg>