<svg xmlns="http://www.w3.org/2000/svg" viewBox="0 0 221.84 221.76"><style>.fill{fill:#fff}</style><path class="fill" d="M221.67 68.17h-67.92V.36c1.43-.42 65.72-.51 67.92-.07zm-23.62-44.44h-20.72v20.89h20.72zm-44.21 53.13h67.59c.43 1.46.58 65.12.16 68H154c-.43-1.4-.58-64.86-.16-68zM198 121.38c.4-2.95.26-19.46-.14-20.85h-20.47c-.39 2.83-.26 19.38.17 20.85zM76.93 68.15V.16h67.73c.4 1.47.54 33 .16 36.05h-23.3V24c-1.62-.5-18.66-.59-21-.15v20.86h44.3v23.44zm-32.37 32.34h-20.8v44.1c-1.56.53-20.89.66-23.56.21V77.13c1.34-.42 65.31-.55 67.93-.1v67.62c-1.39.46-33 .61-35.81.15v-23.28h12.24zM.2 68.16V.14h67.93v23.41H23.82v21h20.82c.17-4 0-8 .1-12 1.57-.47 20.7-.59 23.2-.19.42 1.5.49 33.67.06 35.77zm110.99 53.34H121c.49-1.61.6-18.51.18-21h-20.57a14.57 14.57 0 0 0-.16 1.55v16.6a5.3 5.3 0 0 0 .86 2.8q6.15 10.64 12.27 21.3c.36.61.69 1.24 1 1.9-1.63.43-34.68.55-37.45.19-.38-1.45-.48-65.46-.09-68h67.79v67.92a10.51 10.51 0 0 1-1.48.19h-17.4a2.09 2.09 0 0 1-2.1-1.12c-4.06-7.12-8.17-14.21-12.26-21.31a9 9 0 0 1-.4-1.02z"/></svg>