<svg width="202" height="75" viewBox="0 0 202 75" fill="none" xmlns="http://www.w3.org/2000/svg"><path d="M2.549 63.255L198.416 7.022l-1.535 49.824L12.073 74.432 2.549 63.255z" fill="#A2A2A2"/><path d="M4.537 8.778L199.112 0l-.925 56.553L2.544 65.379 4.537 8.778z" fill="#fff"/><path d="M36.708 48.126c-2.517.113-4.743-.243-6.678-1.069-1.912-.826-3.408-2.044-4.49-3.653-1.081-1.609-1.67-3.492-1.768-5.65-.129-2.853.403-5.448 1.595-7.784 1.214-2.36 2.979-4.254 5.293-5.68 2.314-1.426 5.006-2.208 8.074-2.346 2.254-.102 4.261.192 6.022.881 1.761.69 3.118 1.733 4.07 3.132l-4.052 3.642c-1.432-1.905-3.502-2.797-6.211-2.675-1.846.084-3.457.589-4.833 1.516a9.015 9.015 0 0 0-3.15 3.674c-.7 1.52-1.008 3.192-.926 5.014.087 1.942.768 3.461 2.043 4.557 1.298 1.07 3.061 1.555 5.291 1.455 2.661-.12 4.847-1.192 6.558-3.215l3.611 3.369c-2.362 3.013-5.845 4.624-10.449 4.832zm45.713-27.72l-3.863 25.4-5.43.244 2.308-15.131-9.082 12.77-2.625.118-5.743-12.281-2.337 15.313-5.43.245 3.899-25.402 4.747-.214 7.001 15.396 11.556-16.233 5-.226zm16.984 7.521c5.587-.252 8.483 1.912 8.69 6.492.09 1.99-.346 3.775-1.308 5.356-.939 1.556-2.324 2.796-4.157 3.719-1.809.898-3.948 1.403-6.418 1.515l-11.364.513 3.899-25.402 5.754-.26-1.281 8.347 6.186-.28zM96.522 40.67c1.75-.078 3.132-.597 4.146-1.556 1.037-.984 1.52-2.243 1.451-3.777-.05-1.103-.409-1.892-1.08-2.366-.647-.5-1.666-.718-3.056-.655l-5.43.245-1.282 8.346 5.25-.237zm18.119-21.718l5.863-.265-3.9 25.402-5.862.264 3.899-25.401zm21.214 24.7c-2.518.114-4.744-.242-6.679-1.067-1.911-.827-3.408-2.045-4.489-3.654-1.082-1.608-1.672-3.492-1.769-5.65-.129-2.853.403-5.447 1.595-7.784 1.215-2.36 2.979-4.254 5.293-5.68 2.314-1.425 5.006-2.208 8.075-2.346 2.254-.102 4.261.192 6.022.881 1.761.69 3.117 1.734 4.069 3.132l-4.052 3.643c-1.431-1.906-3.502-2.797-6.211-2.675-1.846.083-3.457.588-4.833 1.515a9.016 9.016 0 0 0-3.149 3.674c-.7 1.52-1.009 3.193-.927 5.015.088 1.942.769 3.46 2.043 4.556 1.298 1.07 3.062 1.556 5.291 1.455 2.662-.12 4.848-1.192 6.558-3.215l3.612 3.369c-2.363 3.014-5.846 4.624-10.449 4.832zm39.217-27.427l-3.899 25.402-5.754.26 3.178-20.613-8.631.39-1.164 6.143c-.716 3.828-1.482 6.817-2.298 8.968-.817 2.127-1.816 3.686-2.997 4.676-1.181.966-2.683 1.49-4.505 1.573a11.373 11.373 0 0 1-2.895-.266l1.108-4.987c.292.083.618.116.978.1.911-.041 1.687-.4 2.329-1.078.642-.678 1.218-1.76 1.728-3.25.509-1.488 1.006-3.528 1.489-6.12l1.985-10.325 19.348-.872z" fill="#333338"/></svg>