<svg width="547" height="91" viewBox="0 0 547 91" fill="none" xmlns="http://www.w3.org/2000/svg"><path d="M2.549 78.81l539.91-71.755-8.094 50.12L27.713 89.281 2.549 78.809z" fill="#A2A2A2"/><path d="M12.395 23.978L543.9 0l-6.934 56.824L2.544 80.934l9.85-56.956z" fill="#fff"/><path d="M45.945 42.362l-8.128.367-3.106 20.609-5.754.26 3.106-20.61-7.948.36.721-4.79 21.83-.985-.72 4.79zm9.445-.498l-.832 5.515 11.688-.527-.695 4.572-11.724.529-.888 5.878 13.738-.62-.76 4.719-19.492.88 3.9-25.402 19.024-.858-.76 4.719-13.199.595zm38.6 19.232c-2.517.114-4.744-.242-6.679-1.068-1.911-.827-3.408-2.045-4.49-3.654-1.08-1.608-1.67-3.492-1.767-5.65-.13-2.853.402-5.447 1.594-7.783 1.215-2.361 2.98-4.255 5.294-5.68 2.314-1.426 5.005-2.208 8.074-2.347 2.254-.102 4.261.192 6.022.882 1.761.689 3.117 1.733 4.069 3.131l-4.052 3.643c-1.431-1.906-3.501-2.797-6.21-2.675-1.847.083-3.458.588-4.833 1.515a9.015 9.015 0 0 0-3.15 3.674c-.7 1.521-1.009 3.193-.927 5.015.088 1.942.769 3.46 2.044 4.556 1.297 1.07 3.06 1.556 5.29 1.455 2.662-.12 4.848-1.191 6.558-3.215l3.612 3.37c-2.363 3.013-5.846 4.623-10.449 4.831zm31.117-7.242l-11.724.53-3.03 5.541-6.221.281 15.155-25.91 5.755-.259 7.321 24.895-5.826.263-1.43-5.34zm-1.171-4.38l-2.56-9.614-5.496 9.978 8.056-.363zm44.004-17.372l-3.864 25.4-5.43.245 2.308-15.132-9.081 12.77-2.626.119-5.743-12.282-2.336 15.313-5.431.245 3.899-25.401 4.748-.215 7.001 15.397 11.556-16.234 4.999-.225zm16.984 7.522c5.586-.252 8.483 1.912 8.689 6.491.09 1.99-.346 3.776-1.308 5.356-.938 1.556-2.324 2.796-4.156 3.72-1.81.898-3.949 1.403-6.418 1.514l-11.365.513 3.899-25.402 5.754-.26-1.281 8.347 6.186-.279zm-2.885 12.743c1.751-.079 3.133-.598 4.146-1.556 1.037-.984 1.521-2.243 1.452-3.778-.05-1.102-.41-1.891-1.08-2.365-.647-.5-1.666-.718-3.057-.655l-5.43.245-1.281 8.346 5.25-.237zm18.12-21.719l5.862-.264-3.899 25.401-5.862.265 3.899-25.402zm16.996 3.918l-.832 5.515 11.688-.527-.695 4.572-11.724.529-.888 5.878 13.738-.62-.76 4.72-19.492.879 3.899-25.402 19.025-.858-.76 4.719-13.199.595zm57.497 3.569c.113 2.493-.424 4.704-1.61 6.631-1.163 1.926-2.894 3.482-5.195 4.667-2.302 1.16-5.057 1.874-8.264 2.139l-.416 2.757-5.359.242.415-2.794c-3.657-.099-6.479-.897-8.469-2.392-1.989-1.496-3.046-3.61-3.169-6.344-.11-2.446.404-4.631 1.542-6.556 1.162-1.927 2.894-3.482 5.195-4.667 2.3-1.209 5.076-1.97 8.33-2.286l.388-2.576 5.358-.242-.386 2.612c3.632.1 6.443.899 8.432 2.395 2.014 1.495 3.083 3.633 3.208 6.414zm-14.376 8.829c2.962-.374 5.17-1.219 6.624-2.533 1.455-1.315 2.132-3.064 2.034-5.245-.077-1.703-.663-2.974-1.758-3.813-1.072-.865-2.703-1.344-4.893-1.437l-2.007 13.028zm-11.973-4.974c.075 1.654.648 2.914 1.72 3.778 1.095.84 2.739 1.318 4.93 1.436l1.971-13.026c-5.946.797-8.82 3.4-8.621 7.812zm41.726 10.262c-2.518.114-4.72-.243-6.607-1.071-1.888-.828-3.36-2.047-4.418-3.657-1.057-1.61-1.635-3.494-1.732-5.651-.129-2.854.403-5.448 1.595-7.784 1.215-2.361 2.967-4.254 5.257-5.679 2.314-1.426 4.994-2.207 8.039-2.345 2.517-.113 4.719.244 6.607 1.072 1.887.827 3.359 2.046 4.417 3.656 1.058 1.61 1.635 3.494 1.732 5.652.129 2.853-.414 5.46-1.629 7.821-1.192 2.336-2.945 4.217-5.259 5.643-2.29 1.425-4.957 2.206-8.002 2.343zm.279-4.986c1.846-.083 3.445-.6 4.795-1.55a8.831 8.831 0 0 0 3.04-3.704c.677-1.52.974-3.18.893-4.977-.087-1.918-.755-3.414-2.004-4.486-1.251-1.097-2.967-1.596-5.149-1.498-1.846.083-3.444.6-4.795 1.55a8.83 8.83 0 0 0-3.04 3.704c-.676 1.52-.974 3.18-.893 4.978.087 1.918.755 3.425 2.006 4.522 1.25 1.073 2.965 1.56 5.147 1.461zm39.27-17.7l-8.127.367-3.107 20.61-5.754.259 3.107-20.61-7.948.36.721-4.79 21.829-.985-.721 4.79zm13.131 20.31c-2.517.113-4.719-.244-6.607-1.072-1.887-.828-3.359-2.047-4.417-3.657-1.058-1.61-1.635-3.493-1.732-5.651-.129-2.853.403-5.448 1.594-7.784 1.215-2.361 2.968-4.254 5.258-5.679 2.314-1.425 4.994-2.207 8.038-2.344 2.518-.114 4.72.243 6.607 1.071 1.888.828 3.36 2.047 4.418 3.657 1.057 1.61 1.635 3.494 1.732 5.651.129 2.854-.414 5.46-1.629 7.822-1.192 2.336-2.945 4.217-5.259 5.642-2.29 1.425-4.958 2.206-8.003 2.344zm.28-4.986c1.846-.083 3.444-.6 4.795-1.55a8.831 8.831 0 0 0 3.04-3.705c.676-1.52.974-3.179.893-4.977-.087-1.918-.755-3.413-2.004-4.486-1.251-1.097-2.967-1.596-5.149-1.498-1.846.084-3.445.6-4.795 1.55a8.83 8.83 0 0 0-3.04 3.705c-.677 1.52-.974 3.179-.893 4.977.087 1.918.755 3.426 2.006 4.522 1.25 1.073 2.965 1.56 5.147 1.462zm30.205 3.61c-2.517.114-4.72-.243-6.607-1.071-1.887-.828-3.36-2.047-4.417-3.657-1.058-1.61-1.635-3.494-1.733-5.651-.128-2.854.403-5.448 1.595-7.784 1.215-2.361 2.967-4.254 5.258-5.679 2.314-1.426 4.993-2.207 8.038-2.345 2.517-.113 4.72.244 6.607 1.072 1.887.828 3.36 2.046 4.417 3.656 1.058 1.61 1.635 3.494 1.733 5.652.128 2.853-.415 5.46-1.629 7.822-1.192 2.336-2.945 4.216-5.259 5.642-2.291 1.425-4.958 2.206-8.003 2.343zm.28-4.985c1.846-.084 3.444-.6 4.795-1.55a8.838 8.838 0 0 0 3.04-3.705c.676-1.52.973-3.179.892-4.977-.086-1.918-.754-3.414-2.004-4.486-1.251-1.097-2.967-1.596-5.149-1.498-1.846.083-3.444.6-4.795 1.55a8.838 8.838 0 0 0-3.04 3.705c-.676 1.52-.973 3.179-.892 4.977.086 1.918.755 3.425 2.006 4.522 1.249 1.073 2.965 1.56 5.147 1.462zm39.27-17.7l-8.128.366-3.106 20.61-5.754.259 3.106-20.609-7.948.359.721-4.79 21.83-.985-.721 4.79zm24.812-5.876l-3.899 25.401-5.754.26 1.396-9c-2.151.793-4.113 1.23-5.887 1.31-2.949.133-5.243-.388-6.882-1.563-1.616-1.2-2.475-2.952-2.579-5.253a11.92 11.92 0 0 1 .143-2.421l1.165-7.728 5.754-.26-1.175 7.513c-.09.652-.127 1.17-.11 1.554.104 2.302 1.559 3.39 4.364 3.263 2.062-.093 4.056-.628 5.982-1.604l1.728-11.213 5.754-.26zm11.325 4.174l-.833 5.515 11.688-.528-.694 4.572-11.724.53-.888 5.877 13.738-.62-.76 4.72-19.493.879 3.9-25.402 19.024-.858-.76 4.72-13.198.595zm37.651-1.627l-8.128.367-3.106 20.609-5.754.26 3.106-20.61-7.948.359.721-4.79 21.83-.984-.721 4.789zm15.074 2.852c5.586-.253 8.483 1.911 8.689 6.49.09 1.99-.346 3.776-1.308 5.357-.939 1.556-2.324 2.795-4.156 3.719-1.81.898-3.949 1.403-6.419 1.515l-11.364.513 3.899-25.402 5.754-.26-1.281 8.347 6.186-.28zm-2.885 12.742c1.75-.078 3.132-.597 4.146-1.556 1.037-.984 1.521-2.243 1.452-3.777-.05-1.103-.41-1.892-1.08-2.366-.647-.5-1.666-.718-3.057-.655l-5.43.245-1.281 8.346 5.25-.236zm18.12-21.718l5.862-.265-3.899 25.402-5.862.264 3.899-25.401z" fill="#333338"/></svg>